<svg width="15" height="15" fill="none" xmlns="http://www.w3.org/2000/svg">
    <path fill-rule="evenodd" clip-rule="evenodd" d="m3.706 6.752 3.697-3.697-1.212-1.212-1.694 1.694a.218.218 0 0 1-.308 0L3.88 3.23a.218.218 0 0 1 0-.308l1.694-1.695-.924-.924a.871.871 0 0 0-1.232 0L.954 2.767A.872.872 0 0 0 .954 4l2.752 2.752Zm10.67-3.21a1.32 1.32 0 0 0 0-1.865L13.133.434a1.32 1.32 0 0 0-1.866 0l-1.265 1.264 3.11 3.11 1.264-1.265ZM9.382 2.32l-8.158 8.158-.516 2.952a.583.583 0 0 0 .676.675l2.951-.518 8.157-8.157-3.11-3.11Zm5.126 7.842-.924-.924-1.695 1.694a.218.218 0 0 1-.308 0l-.307-.308a.218.218 0 0 1 0-.308l1.694-1.694-1.213-1.213-3.697 3.697 2.753 2.752c.34.34.892.34 1.232 0l2.465-2.464a.871.871 0 0 0 0-1.232Z" fill="#fff"/>
</svg>
