<svg width="15" height="14" fill="none" xmlns="http://www.w3.org/2000/svg">
    <path d="M9.1 5.365c1.584 2.745 5.798 1.667 5.834-1.543A3.124 3.124 0 0 0 11.811.696C9.46.652 7.896 3.35 9.099 5.365Zm2.711-1.286a.91.91 0 0 1-.257-1.783v-.368a.257.257 0 1 1 .514 0v.368a.91.91 0 0 1 .651.87.257.257 0 1 1-.514 0 .394.394 0 0 0-.381-.394.395.395 0 0 0-.313.68c.08.076.187.116.297.11a.91.91 0 0 1 .258 1.78v.368a.257.257 0 1 1-.515 0v-.368a.908.908 0 0 1-.653-.87.257.257 0 1 1 .514 0 .396.396 0 1 0 .396-.393h.003ZM7.774 5.756c.3 0 .577-.16.728-.42a3.624 3.624 0 0 1-.257-2.196H1.76A1.237 1.237 0 0 0 .527 4.375v1.381h7.247ZM6.588 4.704h-4.24a.257.257 0 1 1 0-.514h4.24a.257.257 0 1 1 0 .514ZM2.799 12.591h2.722a.257.257 0 0 0 .257-.257l-.105-3.306a.258.258 0 0 0-.258-.242H2.91a.258.258 0 0 0-.258.242l-.113 3.303a.258.258 0 0 0 .26.26ZM4.897 7.832a.736.736 0 1 0-1.471 0v.43h1.471v-.43Z" fill="#fff"/>
    <path d="M11.81 7.457a3.644 3.644 0 0 1-3.035-1.631c-.255.283-.62.445-1 .445H.526v6.45c.002.679.553 1.23 1.233 1.231H12.98c.681 0 1.234-.55 1.235-1.232V6.546a3.618 3.618 0 0 1-2.405.91Zm-4.08.825h4.955a.257.257 0 1 1 0 .515H7.731a.257.257 0 1 1 0-.515Zm0 1.67h4.955a.257.257 0 1 1 0 .515H7.731a.257.257 0 1 1 0-.515Zm0 1.667h4.955a.257.257 0 0 1 0 .515H7.731a.257.257 0 1 1 0-.515ZM2.147 9.011a.772.772 0 0 1 .771-.739v-.44c.052-1.651 2.45-1.654 2.501 0v.43c.414 0 .754.325.772.738l.11 3.303a.77.77 0 0 1-.771.793h-2.73a.772.772 0 0 1-.772-.793l.119-3.292Z" fill="#fff"/>
</svg>
