<svg width="16" height="18" fill="none" xmlns="http://www.w3.org/2000/svg">
    <path d="M4.236 17.014h-2.15a.572.572 0 0 1-.57-.57v-4.401c0-.315.258-.57.57-.57h2.15c.315 0 .57.258.57.57v4.4a.568.568 0 0 1-.57.57ZM8.928 17.014H6.982a.677.677 0 0 1-.673-.674V9.99c0-.369.302-.674.673-.674h1.946c.368 0 .674.302.674.674v6.35a.674.674 0 0 1-.674.674ZM13.637 17.014h-1.773a.761.761 0 0 1-.759-.759V7.96c0-.418.344-.758.76-.758h1.772c.418 0 .758.343.758.758v8.296a.76.76 0 0 1-.758.76ZM13.91.898a1.257 1.257 0 0 0-1.204 1.31L9.508 5.351 6.78 2.966l-4.99 5.006A1.255 1.255 0 0 0 .692 9.266a1.259 1.259 0 0 0 1.31 1.203 1.259 1.259 0 0 0 1.203-1.31c-.003-.057-.016-.11-.025-.167l3.756-3.605L9.57 7.695l4.366-4.288c.026 0 .05.006.076.003a1.256 1.256 0 0 0-.104-2.512Z" fill="#fff"/>
</svg>
