<svg width="18" height="15" fill="none" xmlns="http://www.w3.org/2000/svg">
    <path fill-rule="evenodd" clip-rule="evenodd" d="M16.735.902H4.633a.864.864 0 0 0-.864.865V4.36H8.09V2.63h5.187v8.644h3.457a.865.865 0 0 0 .865-.864V1.767a.865.865 0 0 0-.865-.865ZM6.576 3.684a.243.243 0 0 1-.243.244h-.81a.243.243 0 0 1-.243-.244v-.81c0-.134.109-.243.243-.243h.81c.135 0 .243.109.243.243v.81Zm9.51 5.62a.243.243 0 0 1-.244.243h-.81a.243.243 0 0 1-.243-.244v-.81c0-.134.109-.243.243-.243h.81c.135 0 .244.109.244.243v.81Zm0-2.81a.243.243 0 0 1-.244.243h-.81a.243.243 0 0 1-.243-.243v-.81c0-.135.109-.244.243-.244h.81c.135 0 .244.11.244.244v.81Zm0-2.81a.243.243 0 0 1-.244.244h-.81a.243.243 0 0 1-.243-.244v-.81c0-.134.109-.243.243-.243h.81c.135 0 .244.109.244.243v.81Zm-4.54 1.54H1.173a.864.864 0 0 0-.864.865v7.78c0 .477.387.864.864.864h10.373a.864.864 0 0 0 .865-.864v-7.78a.864.864 0 0 0-.865-.865Zm-8.645 1.73a.864.864 0 1 1 0 1.728.864.864 0 0 1 0-1.729Zm7.78 6.05H2.036v-.864l1.729-1.729.864.864 3.458-3.457 2.594 2.593v2.593Z" fill="#fff"/>
</svg>
