<svg width="15" height="14" fill="none" xmlns="http://www.w3.org/2000/svg">
    <path fill-rule="evenodd" clip-rule="evenodd" d="M4.509 3.928c-.55.155-.988.573-1.168 1.115l-2.517 7.55.396.396 4.05-4.05a1.282 1.282 0 0 1-.13-.555A1.295 1.295 0 1 1 6.435 9.68c-.2 0-.386-.049-.555-.13L1.83 13.6l.397.396 7.549-2.516c.542-.181.96-.619 1.115-1.169l1.155-4.084-3.453-3.452-4.084 1.154Zm9.746-1.743L12.634.563a1.295 1.295 0 0 0-1.832 0L9.277 2.09l3.453 3.453 1.525-1.525a1.295 1.295 0 0 0 0-1.832Z" fill="#EC1721"/>
</svg>
