<svg width="16" height="16" fill="none" xmlns="http://www.w3.org/2000/svg">
    <path d="m15.154 10.207-3.566-1.52a1.186 1.186 0 0 0-1.148.098l-1.909 1.27a5.817 5.817 0 0 1-2.676-2.661l1.262-1.932a1.209 1.209 0 0 0 .106-1.148L5.695.748a1.24 1.24 0 0 0-1.27-.73A4.273 4.273 0 0 0 .707 4.246c0 6.037 4.912 10.949 10.949 10.949a4.273 4.273 0 0 0 4.228-3.718 1.24 1.24 0 0 0-.73-1.27ZM10.243 1.79a5.52 5.52 0 0 1 3.87 3.87.608.608 0 0 0 1.115.15.6.6 0 0 0 .056-.462A6.691 6.691 0 0 0 10.554.62a.609.609 0 1 0-.311 1.171ZM9.61 4.14a3.072 3.072 0 0 1 2.152 2.151.601.601 0 0 0 .585.456.486.486 0 0 0 .152-.022.601.601 0 0 0 .434-.746 4.242 4.242 0 0 0-3.011-3.01.608.608 0 1 0-.312 1.17Z" fill="#EC1721"/>
</svg>
