<svg width="13" height="13" fill="none" xmlns="http://www.w3.org/2000/svg">
    <path fill-rule="evenodd" clip-rule="evenodd" d="M11.34.124H1.045a.861.861 0 0 0-.855.865v10.274c0 .478.384.866.855.866H11.34a.864.864 0 0 0 .858-.865V.989a.864.864 0 0 0-.858-.865Zm-7.52 10.29H2.04v-5.73h1.782v5.73H3.82Zm-.89-6.512a1.032 1.032 0 1 1 0-2.064 1.032 1.032 0 0 1 0 2.064Zm7.56 6.512H8.71V7.627c0-.665-.014-1.52-.925-1.52-.927 0-1.069.724-1.069 1.472v2.835h-1.78v-5.73h1.708v.783h.024c.238-.45.82-.924 1.685-.924 1.801 0 2.136 1.187 2.136 2.73v3.141Z" fill="#EC1721"/>
</svg>
